<?xml version="1.0" encoding="UTF-8"?>
<svg width="16px" height="16px" viewBox="0 0 16 16" version="1.1" xmlns="http://www.w3.org/2000/svg" xmlns:xlink="http://www.w3.org/1999/xlink">
    <title>icon_service</title>
    <g id="钱包&amp;三方服务" stroke="none" stroke-width="1" fill="none" fill-rule="evenodd">
        <g transform="translate(-333.000000, -4759.000000)" id="付费中心">
            <g transform="translate(311.000000, 1178.000000)">
                <g id="编组-11备份" transform="translate(0.000000, 508.000000)">
                    <g id="编组-8" transform="translate(0.000000, 3031.000000)">
                        <g id="编组-19" transform="translate(22.000000, 42.000000)">
                            <circle id="椭圆形" stroke="#FFFFFF" cx="8" cy="8" r="6.5"></circle>
                            <path d="M10.321875,4.875 L9.4703125,4.875 C9.4234375,4.875 9.3796875,4.9015625 9.359375,4.94375 L8.0359375,7.58125 L7.984375,7.58125 L6.6609375,4.94375 C6.6390625,4.9015625 6.596875,4.875 6.55,4.875 L5.6796875,4.875 C5.659375,4.875 5.6390625,4.8796875 5.6203125,4.890625 C5.559375,4.9234375 5.5375,5 5.5703125,5.059375 L7.19375,8.053125 L6.303125,8.053125 C6.234375,8.053125 6.178125,8.109375 6.178125,8.178125 L6.178125,8.6015625 C6.178125,8.6703125 6.234375,8.7265625 6.303125,8.7265625 L7.490625,8.7265625 L7.490625,9.3359375 L6.303125,9.3359375 C6.234375,9.3359375 6.178125,9.3921875 6.178125,9.4609375 L6.178125,9.884375 C6.178125,9.953125 6.234375,10.009375 6.303125,10.009375 L7.490625,10.009375 L7.490625,11 C7.490625,11.06875 7.546875,11.125 7.615625,11.125 L8.3953125,11.125 C8.4640625,11.125 8.5203125,11.06875 8.5203125,11 L8.5203125,10.0078125 L9.7125,10.0078125 C9.78125,10.0078125 9.8375,9.9515625 9.8375,9.8828125 L9.8375,9.459375 C9.8375,9.390625 9.78125,9.334375 9.7125,9.334375 L8.5203125,9.334375 L8.5203125,8.725 L9.7125,8.725 C9.78125,8.725 9.8375,8.66875 9.8375,8.6 L9.8375,8.1765625 C9.8375,8.1078125 9.78125,8.0515625 9.7125,8.0515625 L8.8125,8.0515625 L10.4328125,5.0578125 C10.4421875,5.0390625 10.4484375,5.01875 10.4484375,4.9984375 C10.446875,4.93125 10.390625,4.875 10.321875,4.875 Z" id="路径" fill="#E7777F" fill-rule="nonzero"></path>
                        </g>
                    </g>
                </g>
            </g>
        </g>
    </g>
</svg>